# xmcd
#
# Track frame offsets: 
#        150
#        14420
#        46868
#        80888
#        114936
#
# Disc length: 2000 seconds
#
# Revision: 0
# Processed by: cddbd v1.5.2PL0 Copyright (c) Steve Scherf et al.
# Submitted via: ExactAudioCopy v0.99pb4
#
DISCID=3507ce05
DTITLE=Chelonis R. Jones - I Don't Know?
DYEAR=2006
DGENRE=House
TTITLE0=I Don't Know? (Cicada Radio Edit)
TTITLE1=I Don't Know? (Original Mix)
TTITLE2=I Don't Know? (Cicada Remix) 
TTITLE3=I Don't Know? (Cicada Instrumental) 
TTITLE4=I Don't Know? (Just Us Remix)
EXTD=
EXTT0=
EXTT1=
EXTT2=
EXTT3=
EXTT4=
PLAYORDER=
